<mxfile
  host="Electron" 
  agent="Mozilla/5.0 (Macintosh; Intel Mac OS X 10_15_7) AppleWebKit/537.36 (KHTML, like Gecko) draw.io/25.0.2 Chrome/128.0.6613.186 Electron/32.2.5 Safari/537.36" 
  version="25.0.2"
  >
  <diagram
    name="-"
    >
    <mxGraphModel
      grid="1" 
      gridSize="10" 
      guides="1" 
      tooltips="1" 
      connect="1" 
      arrows="1" 
      fold="1" 
      page="1" 
      pageScale="1" 
      pageWidth="1" 
      pageHeight="1" 
      math="0" 
      shadow="0"
      >
      <root>
        <mxCell
          id="page"
          />
        <mxCell
          id="root" 
          parent="page"
          />
        <mxCell
          style="verticalAlign=top;aspect=fixed;align=center;spacingLeft=5;spacingRight=5;spacingBottom=5;strokeColor=none;" 
          id="shape_" 
          parent="root" 
          value=" " 
          vertex="1"
          >
          <mxGeometry
            as="geometry" 
            width="120" 
            height="120" 
            x="0" 
            y="0"
            />
          </mxCell>
        <mxCell
          style="rounded=1;whiteSpace=wrap;verticalAlign=top;align=center;shape=image;verticalLabelPosition=bottom;labelBackgroundColor=default;aspect=fixed;imageAspect=0;editableCssRules=.*;image=data:image/svg+xml,PHN2ZyB4bWxuczp4bGluaz0iaHR0cDovL3d3dy53My5vcmcvMTk5OS94bGluayIgeG1sbnM9Imh0dHA6Ly93d3cudzMub3JnLzIwMDAvc3ZnIiB2aWV3Qm94PSIwLjAwMDg4OTYyOTEyNTU5NTA5MjggMCAyMy45OTY2NzU0OTEzMzMwMDggMjQiIHZlcnNpb249IjEuMSIgaWQ9IkxheWVyXzEiIHdpZHRoPSIyMy45OTY2NzU0OTEzMzMwMDgiIGhlaWdodD0iMjQiPiYjeGE7ICA8c3R5bGUgdHlwZT0idGV4dC9jc3MiPi5zdDAgeyBzdG9wLWNvbG9yOiByZ2IoOTEsIDExNSwgMTM5KTsgfSAuc3QxIHsgc3RvcC1jb2xvcjogcmdiKDM0LCA1MywgNzIpOyB9IDwvc3R5bGU+JiN4YTsgIDxkZWZzPiYjeGE7ICAgIDxsaW5lYXJHcmFkaWVudCBpZD0iQSIgeDE9IjAiIHkxPSIwIiB4Mj0iMjQiIHkyPSIyNCIgZ3JhZGllbnRVbml0cz0idXNlclNwYWNlT25Vc2UiPiYjeGE7ICAgICAgPHN0b3AgY2xhc3M9InN0MCIvPiYjeGE7ICAgICAgPHN0b3Agb2Zmc2V0PSIxIiBjbGFzcz0ic3QxIi8+JiN4YTsgICAgPC9saW5lYXJHcmFkaWVudD4mI3hhOyAgPC9kZWZzPiYjeGE7ICA8cGF0aCBmaWxsLXJ1bGU9ImV2ZW5vZGQiIGZpbGw9InVybCgjQSkiIGQ9Ik0xNC43NSw0Ljg3Yy0uMTctLjQ3LS44My0uNDctLjk5LDAtLjU0LDEuNjItMS4yOCwyLjM0LTIuOSwyLjg5LS40OC4xNS0uNDguODIsMCwuOTksMS42Mi41NCwyLjM0LDEuMjcsMi45LDIuODkuMTYuNDcuODIuNDcuOTksMCwuNTQtMS42MiwxLjI3LTIuMzQsMi45LTIuODkuNDgtLjE1LjQ4LS44MiwwLS45OS0xLjYyLS41NC0yLjM0LTEuMjgtMi45LTIuODlaTTIzLjc5LDcuMTJMMTkuMjkuNTJjLS4yMy0uMzMtLjYtLjUyLS45OS0uNTJINi4zYy0uMzYsMC0uNzIuMTctLjk1LjQ3TC4yNiw3LjA3Yy0uMzMuNDItLjM1LDEtLjAzLDEuNDRsMTAuOCwxNWgwYy4yMy4zMS41OS40OS45OC40OXMuNzUtLjE4Ljk3LS41bDEwLjgtMTVjLjI4LS40LjMtLjk2LDAtMS4zOGguMDFaTTEyLjAxLDIwLjc0aC0uMDFMMi43LDcuODMsNi44OSwyLjRoMTAuNzdsMy42OCw1LjM4LTkuMzMsMTIuOTZaIi8+JiN4YTs8L3N2Zz4;strokeColor=none;" 
          id="da_non_sap_" 
          parent="shape_" 
          value=" " 
          vertex="1"
          >
          <mxGeometry
            as="geometry" 
            width="60" 
            height="60" 
            x="30" 
            y="30"
            />
          </mxCell>
        </root>
      </mxGraphModel>
    </diagram>
  </mxfile>